<mxfile host="app.diagrams.net" modified="2023-06-05T22:44:12.884Z" agent="Mozilla/5.0 (Windows NT 10.0; Win64; x64) AppleWebKit/537.36 (KHTML, like Gecko) Chrome/112.0.0.0 Safari/537.36 OPR/98.0.0.0" etag="lumJeGre0bXeRHamspxX" version="21.3.3" type="github">
  <diagram name="Página-1" id="NMou-S91j1zpHWymBevD">
    <mxGraphModel dx="1498" dy="420" grid="1" gridSize="10" guides="1" tooltips="1" connect="1" arrows="1" fold="1" page="1" pageScale="1" pageWidth="827" pageHeight="1169" math="0" shadow="0">
      <root>
        <mxCell id="0" />
        <mxCell id="1" parent="0" />
        <mxCell id="NHslE8xV1uabQfI8mZE7-3" style="edgeStyle=orthogonalEdgeStyle;rounded=0;orthogonalLoop=1;jettySize=auto;html=1;" edge="1" parent="1" source="NHslE8xV1uabQfI8mZE7-2">
          <mxGeometry relative="1" as="geometry">
            <mxPoint x="320" y="110" as="targetPoint" />
          </mxGeometry>
        </mxCell>
        <mxCell id="NHslE8xV1uabQfI8mZE7-2" value="Dark consigue el poder de Vi." style="rounded=1;whiteSpace=wrap;html=1;strokeColor=#82b366;fillColor=#d5e8d4;" vertex="1" parent="1">
          <mxGeometry x="80" y="80" width="120" height="60" as="geometry" />
        </mxCell>
        <mxCell id="NHslE8xV1uabQfI8mZE7-12" style="edgeStyle=orthogonalEdgeStyle;rounded=0;orthogonalLoop=1;jettySize=auto;html=1;exitX=1;exitY=0.5;exitDx=0;exitDy=0;" edge="1" parent="1" target="NHslE8xV1uabQfI8mZE7-11">
          <mxGeometry relative="1" as="geometry">
            <mxPoint x="440" y="110" as="sourcePoint" />
          </mxGeometry>
        </mxCell>
        <mxCell id="NHslE8xV1uabQfI8mZE7-13" style="edgeStyle=orthogonalEdgeStyle;rounded=0;orthogonalLoop=1;jettySize=auto;html=1;exitX=0.5;exitY=1;exitDx=0;exitDy=0;" edge="1" parent="1">
          <mxGeometry relative="1" as="geometry">
            <mxPoint x="380" y="220" as="targetPoint" />
            <mxPoint x="380" y="140" as="sourcePoint" />
          </mxGeometry>
        </mxCell>
        <mxCell id="NHslE8xV1uabQfI8mZE7-7" style="edgeStyle=orthogonalEdgeStyle;rounded=0;orthogonalLoop=1;jettySize=auto;html=1;exitX=1;exitY=0.5;exitDx=0;exitDy=0;entryX=0;entryY=0.5;entryDx=0;entryDy=0;" edge="1" parent="1" source="NHslE8xV1uabQfI8mZE7-6" target="NHslE8xV1uabQfI8mZE7-8">
          <mxGeometry relative="1" as="geometry">
            <mxPoint x="-130" y="630" as="targetPoint" />
          </mxGeometry>
        </mxCell>
        <mxCell id="NHslE8xV1uabQfI8mZE7-6" value="Eloy ya es capaz de ver en el limbo" style="rounded=1;whiteSpace=wrap;html=1;" vertex="1" parent="1">
          <mxGeometry x="-330" y="600" width="120" height="60" as="geometry" />
        </mxCell>
        <mxCell id="NHslE8xV1uabQfI8mZE7-10" style="edgeStyle=orthogonalEdgeStyle;rounded=0;orthogonalLoop=1;jettySize=auto;html=1;exitX=1;exitY=0.5;exitDx=0;exitDy=0;entryX=0;entryY=0.5;entryDx=0;entryDy=0;" edge="1" parent="1" source="NHslE8xV1uabQfI8mZE7-8" target="NHslE8xV1uabQfI8mZE7-9">
          <mxGeometry relative="1" as="geometry" />
        </mxCell>
        <mxCell id="NHslE8xV1uabQfI8mZE7-8" value="El lider del limbo le propone un trato." style="rounded=1;whiteSpace=wrap;html=1;" vertex="1" parent="1">
          <mxGeometry x="-90" y="600" width="120" height="60" as="geometry" />
        </mxCell>
        <mxCell id="NHslE8xV1uabQfI8mZE7-30" style="edgeStyle=orthogonalEdgeStyle;rounded=0;orthogonalLoop=1;jettySize=auto;html=1;exitX=1;exitY=0.5;exitDx=0;exitDy=0;entryX=0;entryY=0.5;entryDx=0;entryDy=0;" edge="1" parent="1" source="NHslE8xV1uabQfI8mZE7-9" target="NHslE8xV1uabQfI8mZE7-27">
          <mxGeometry relative="1" as="geometry" />
        </mxCell>
        <mxCell id="NHslE8xV1uabQfI8mZE7-9" value="Eloy acepta el trato, ganando poder y volviendo con el grupo" style="rounded=1;whiteSpace=wrap;html=1;" vertex="1" parent="1">
          <mxGeometry x="100" y="600" width="120" height="60" as="geometry" />
        </mxCell>
        <mxCell id="NHslE8xV1uabQfI8mZE7-16" style="edgeStyle=orthogonalEdgeStyle;rounded=0;orthogonalLoop=1;jettySize=auto;html=1;exitX=1;exitY=0.5;exitDx=0;exitDy=0;entryX=0;entryY=0.5;entryDx=0;entryDy=0;" edge="1" parent="1" source="NHslE8xV1uabQfI8mZE7-11" target="NHslE8xV1uabQfI8mZE7-15">
          <mxGeometry relative="1" as="geometry" />
        </mxCell>
        <mxCell id="NHslE8xV1uabQfI8mZE7-11" value="Dark no puede luchar en la batalla." style="rounded=1;whiteSpace=wrap;html=1;" vertex="1" parent="1">
          <mxGeometry x="550" y="80" width="120" height="60" as="geometry" />
        </mxCell>
        <mxCell id="NHslE8xV1uabQfI8mZE7-17" style="edgeStyle=orthogonalEdgeStyle;rounded=0;orthogonalLoop=1;jettySize=auto;html=1;exitX=0.5;exitY=1;exitDx=0;exitDy=0;" edge="1" parent="1" source="NHslE8xV1uabQfI8mZE7-14">
          <mxGeometry relative="1" as="geometry">
            <mxPoint x="380" y="370" as="targetPoint" />
          </mxGeometry>
        </mxCell>
        <mxCell id="NHslE8xV1uabQfI8mZE7-14" value="Derek comienza a movilizar las tropas." style="rounded=1;whiteSpace=wrap;html=1;" vertex="1" parent="1">
          <mxGeometry x="320" y="220" width="120" height="60" as="geometry" />
        </mxCell>
        <mxCell id="NHslE8xV1uabQfI8mZE7-71" style="edgeStyle=orthogonalEdgeStyle;rounded=0;orthogonalLoop=1;jettySize=auto;html=1;exitX=1;exitY=0.5;exitDx=0;exitDy=0;entryX=0;entryY=0.5;entryDx=0;entryDy=0;" edge="1" parent="1" source="NHslE8xV1uabQfI8mZE7-15" target="NHslE8xV1uabQfI8mZE7-72">
          <mxGeometry relative="1" as="geometry">
            <mxPoint x="960" y="570" as="targetPoint" />
          </mxGeometry>
        </mxCell>
        <mxCell id="NHslE8xV1uabQfI8mZE7-15" value="Fin de dark hasta el arco de eloy" style="ellipse;whiteSpace=wrap;html=1;aspect=fixed;" vertex="1" parent="1">
          <mxGeometry x="720" y="70" width="80" height="80" as="geometry" />
        </mxCell>
        <mxCell id="NHslE8xV1uabQfI8mZE7-20" style="edgeStyle=orthogonalEdgeStyle;rounded=0;orthogonalLoop=1;jettySize=auto;html=1;exitX=1;exitY=0.5;exitDx=0;exitDy=0;" edge="1" parent="1" source="NHslE8xV1uabQfI8mZE7-19">
          <mxGeometry relative="1" as="geometry">
            <mxPoint x="520" y="410" as="targetPoint" />
          </mxGeometry>
        </mxCell>
        <mxCell id="NHslE8xV1uabQfI8mZE7-23" style="edgeStyle=orthogonalEdgeStyle;rounded=0;orthogonalLoop=1;jettySize=auto;html=1;exitX=0;exitY=0.5;exitDx=0;exitDy=0;" edge="1" parent="1" source="NHslE8xV1uabQfI8mZE7-19">
          <mxGeometry relative="1" as="geometry">
            <mxPoint x="240" y="410" as="targetPoint" />
          </mxGeometry>
        </mxCell>
        <mxCell id="NHslE8xV1uabQfI8mZE7-19" value="¿Daigo avisa?" style="rhombus;whiteSpace=wrap;html=1;" vertex="1" parent="1">
          <mxGeometry x="330" y="370" width="100" height="80" as="geometry" />
        </mxCell>
        <mxCell id="NHslE8xV1uabQfI8mZE7-21" value="si" style="text;html=1;align=center;verticalAlign=middle;resizable=0;points=[];autosize=1;strokeColor=none;fillColor=none;" vertex="1" parent="1">
          <mxGeometry x="440" y="380" width="30" height="30" as="geometry" />
        </mxCell>
        <mxCell id="NHslE8xV1uabQfI8mZE7-22" value="Ender propone dividirse, concentrando el peso en el limite del universo." style="rounded=1;whiteSpace=wrap;html=1;" vertex="1" parent="1">
          <mxGeometry x="520" y="370" width="120" height="80" as="geometry" />
        </mxCell>
        <mxCell id="NHslE8xV1uabQfI8mZE7-24" value="no" style="text;html=1;align=center;verticalAlign=middle;resizable=0;points=[];autosize=1;strokeColor=none;fillColor=none;" vertex="1" parent="1">
          <mxGeometry x="290" y="380" width="40" height="30" as="geometry" />
        </mxCell>
        <mxCell id="NHslE8xV1uabQfI8mZE7-25" value="tratar de algún modo que Ender se entere.&lt;br&gt;(atacar con Einar?)" style="rounded=1;whiteSpace=wrap;html=1;" vertex="1" parent="1">
          <mxGeometry x="120" y="370" width="120" height="80" as="geometry" />
        </mxCell>
        <mxCell id="NHslE8xV1uabQfI8mZE7-34" style="edgeStyle=orthogonalEdgeStyle;rounded=0;orthogonalLoop=1;jettySize=auto;html=1;exitX=0.5;exitY=1;exitDx=0;exitDy=0;entryX=0.5;entryY=0;entryDx=0;entryDy=0;" edge="1" parent="1" source="NHslE8xV1uabQfI8mZE7-27" target="NHslE8xV1uabQfI8mZE7-32">
          <mxGeometry relative="1" as="geometry" />
        </mxCell>
        <mxCell id="NHslE8xV1uabQfI8mZE7-27" value="se movilizan para luchar" style="rounded=1;whiteSpace=wrap;html=1;" vertex="1" parent="1">
          <mxGeometry x="320" y="590" width="120" height="80" as="geometry" />
        </mxCell>
        <mxCell id="NHslE8xV1uabQfI8mZE7-28" value="" style="endArrow=classic;html=1;rounded=0;entryX=1;entryY=0;entryDx=0;entryDy=0;exitX=0;exitY=1;exitDx=0;exitDy=0;" edge="1" parent="1" source="NHslE8xV1uabQfI8mZE7-22" target="NHslE8xV1uabQfI8mZE7-27">
          <mxGeometry width="50" height="50" relative="1" as="geometry">
            <mxPoint x="450" y="520" as="sourcePoint" />
            <mxPoint x="500" y="470" as="targetPoint" />
          </mxGeometry>
        </mxCell>
        <mxCell id="NHslE8xV1uabQfI8mZE7-29" value="" style="endArrow=classic;html=1;rounded=0;entryX=0;entryY=0;entryDx=0;entryDy=0;exitX=0;exitY=1;exitDx=0;exitDy=0;" edge="1" parent="1" target="NHslE8xV1uabQfI8mZE7-27">
          <mxGeometry width="50" height="50" relative="1" as="geometry">
            <mxPoint x="240" y="445" as="sourcePoint" />
            <mxPoint x="160" y="585" as="targetPoint" />
          </mxGeometry>
        </mxCell>
        <mxCell id="NHslE8xV1uabQfI8mZE7-36" style="edgeStyle=orthogonalEdgeStyle;rounded=0;orthogonalLoop=1;jettySize=auto;html=1;exitX=0.5;exitY=1;exitDx=0;exitDy=0;entryX=0.5;entryY=0;entryDx=0;entryDy=0;" edge="1" parent="1" source="NHslE8xV1uabQfI8mZE7-32" target="NHslE8xV1uabQfI8mZE7-35">
          <mxGeometry relative="1" as="geometry" />
        </mxCell>
        <mxCell id="NHslE8xV1uabQfI8mZE7-32" value="Tras la lucha, Derek trata de abrir la puerta al primer universo&amp;nbsp;" style="rounded=1;whiteSpace=wrap;html=1;" vertex="1" parent="1">
          <mxGeometry x="320" y="780" width="120" height="60" as="geometry" />
        </mxCell>
        <mxCell id="NHslE8xV1uabQfI8mZE7-37" style="edgeStyle=orthogonalEdgeStyle;rounded=0;orthogonalLoop=1;jettySize=auto;html=1;exitX=1;exitY=0.5;exitDx=0;exitDy=0;" edge="1" parent="1" source="NHslE8xV1uabQfI8mZE7-35">
          <mxGeometry relative="1" as="geometry">
            <mxPoint x="540" y="955.0344827586207" as="targetPoint" />
          </mxGeometry>
        </mxCell>
        <mxCell id="NHslE8xV1uabQfI8mZE7-41" style="edgeStyle=orthogonalEdgeStyle;rounded=0;orthogonalLoop=1;jettySize=auto;html=1;exitX=0;exitY=0.5;exitDx=0;exitDy=0;entryX=1;entryY=0.5;entryDx=0;entryDy=0;" edge="1" parent="1" source="NHslE8xV1uabQfI8mZE7-35" target="NHslE8xV1uabQfI8mZE7-40">
          <mxGeometry relative="1" as="geometry" />
        </mxCell>
        <mxCell id="NHslE8xV1uabQfI8mZE7-35" value="Tiene todos los poderes?" style="rhombus;whiteSpace=wrap;html=1;" vertex="1" parent="1">
          <mxGeometry x="320" y="910" width="120" height="90" as="geometry" />
        </mxCell>
        <mxCell id="NHslE8xV1uabQfI8mZE7-38" value="si" style="text;html=1;align=center;verticalAlign=middle;resizable=0;points=[];autosize=1;strokeColor=none;fillColor=none;" vertex="1" parent="1">
          <mxGeometry x="440" y="930" width="30" height="30" as="geometry" />
        </mxCell>
        <mxCell id="NHslE8xV1uabQfI8mZE7-39" value="Entra sin daño, dejando la puerta abierta." style="rounded=1;whiteSpace=wrap;html=1;" vertex="1" parent="1">
          <mxGeometry x="540" y="925" width="120" height="60" as="geometry" />
        </mxCell>
        <mxCell id="NHslE8xV1uabQfI8mZE7-40" value="Trata de entrar a la fuerza, acabando con las billones de vidas que hay en la palma de su mano para obtener suficiente poder." style="rounded=1;whiteSpace=wrap;html=1;" vertex="1" parent="1">
          <mxGeometry x="90" y="902.5" width="160" height="105" as="geometry" />
        </mxCell>
        <mxCell id="NHslE8xV1uabQfI8mZE7-42" value="no" style="text;html=1;align=center;verticalAlign=middle;resizable=0;points=[];autosize=1;strokeColor=none;fillColor=none;" vertex="1" parent="1">
          <mxGeometry x="280" y="925" width="40" height="30" as="geometry" />
        </mxCell>
        <mxCell id="NHslE8xV1uabQfI8mZE7-46" value="" style="endArrow=classic;html=1;rounded=0;entryX=0.5;entryY=0;entryDx=0;entryDy=0;exitX=0;exitY=1;exitDx=0;exitDy=0;" edge="1" parent="1" target="NHslE8xV1uabQfI8mZE7-48">
          <mxGeometry width="50" height="50" relative="1" as="geometry">
            <mxPoint x="540" y="985" as="sourcePoint" />
            <mxPoint x="460" y="1125" as="targetPoint" />
          </mxGeometry>
        </mxCell>
        <mxCell id="NHslE8xV1uabQfI8mZE7-47" value="" style="endArrow=classic;html=1;rounded=0;exitX=0;exitY=1;exitDx=0;exitDy=0;entryX=0.5;entryY=0;entryDx=0;entryDy=0;" edge="1" parent="1" target="NHslE8xV1uabQfI8mZE7-48">
          <mxGeometry width="50" height="50" relative="1" as="geometry">
            <mxPoint x="250" y="1000" as="sourcePoint" />
            <mxPoint x="340" y="1130" as="targetPoint" />
          </mxGeometry>
        </mxCell>
        <mxCell id="NHslE8xV1uabQfI8mZE7-56" style="edgeStyle=orthogonalEdgeStyle;rounded=0;orthogonalLoop=1;jettySize=auto;html=1;exitX=1;exitY=0.5;exitDx=0;exitDy=0;entryX=0;entryY=0.5;entryDx=0;entryDy=0;" edge="1" parent="1" source="NHslE8xV1uabQfI8mZE7-48" target="NHslE8xV1uabQfI8mZE7-55">
          <mxGeometry relative="1" as="geometry" />
        </mxCell>
        <mxCell id="NHslE8xV1uabQfI8mZE7-48" value="Sea como sea, Derek debe morir." style="rounded=1;whiteSpace=wrap;html=1;" vertex="1" parent="1">
          <mxGeometry x="320" y="1100" width="120" height="60" as="geometry" />
        </mxCell>
        <mxCell id="NHslE8xV1uabQfI8mZE7-53" style="edgeStyle=orthogonalEdgeStyle;rounded=0;orthogonalLoop=1;jettySize=auto;html=1;exitX=0;exitY=0.5;exitDx=0;exitDy=0;endArrow=none;endFill=0;" edge="1" parent="1" source="NHslE8xV1uabQfI8mZE7-51">
          <mxGeometry relative="1" as="geometry">
            <mxPoint x="380" y="730.2068965517242" as="targetPoint" />
          </mxGeometry>
        </mxCell>
        <mxCell id="NHslE8xV1uabQfI8mZE7-51" value="Antes de ello, Eloy debe hablar con Rachel" style="rounded=1;whiteSpace=wrap;html=1;" vertex="1" parent="1">
          <mxGeometry x="490" y="700" width="120" height="60" as="geometry" />
        </mxCell>
        <mxCell id="NHslE8xV1uabQfI8mZE7-57" style="edgeStyle=orthogonalEdgeStyle;rounded=0;orthogonalLoop=1;jettySize=auto;html=1;exitX=1;exitY=0.5;exitDx=0;exitDy=0;" edge="1" parent="1" source="NHslE8xV1uabQfI8mZE7-55">
          <mxGeometry relative="1" as="geometry">
            <mxPoint x="760" y="1130.2068965517242" as="targetPoint" />
          </mxGeometry>
        </mxCell>
        <mxCell id="NHslE8xV1uabQfI8mZE7-55" value="El encapuchado espera a Max en aquel lugar." style="rounded=1;whiteSpace=wrap;html=1;" vertex="1" parent="1">
          <mxGeometry x="540" y="1100" width="120" height="60" as="geometry" />
        </mxCell>
        <mxCell id="NHslE8xV1uabQfI8mZE7-61" style="edgeStyle=orthogonalEdgeStyle;rounded=0;orthogonalLoop=1;jettySize=auto;html=1;exitX=1;exitY=0.5;exitDx=0;exitDy=0;entryX=0;entryY=0.5;entryDx=0;entryDy=0;" edge="1" parent="1" source="NHslE8xV1uabQfI8mZE7-58" target="NHslE8xV1uabQfI8mZE7-62">
          <mxGeometry relative="1" as="geometry">
            <mxPoint x="820.2758620689656" y="1230" as="targetPoint" />
          </mxGeometry>
        </mxCell>
        <mxCell id="NHslE8xV1uabQfI8mZE7-58" value="Tras hablar con todos, avisa de que la existencia está a salvo.&amp;nbsp;" style="rounded=1;whiteSpace=wrap;html=1;" vertex="1" parent="1">
          <mxGeometry x="760" y="1090" width="120" height="80" as="geometry" />
        </mxCell>
        <mxCell id="NHslE8xV1uabQfI8mZE7-70" style="edgeStyle=orthogonalEdgeStyle;rounded=0;orthogonalLoop=1;jettySize=auto;html=1;exitX=0.5;exitY=0;exitDx=0;exitDy=0;entryX=0.5;entryY=1;entryDx=0;entryDy=0;" edge="1" parent="1" source="NHslE8xV1uabQfI8mZE7-60" target="NHslE8xV1uabQfI8mZE7-65">
          <mxGeometry relative="1" as="geometry" />
        </mxCell>
        <mxCell id="NHslE8xV1uabQfI8mZE7-60" value="Todos los poderes se quedan dentro del primer universo." style="rounded=1;whiteSpace=wrap;html=1;" vertex="1" parent="1">
          <mxGeometry x="925" y="950" width="120" height="85" as="geometry" />
        </mxCell>
        <mxCell id="NHslE8xV1uabQfI8mZE7-68" style="edgeStyle=orthogonalEdgeStyle;rounded=0;orthogonalLoop=1;jettySize=auto;html=1;exitX=0.5;exitY=0;exitDx=0;exitDy=0;entryX=0.5;entryY=1;entryDx=0;entryDy=0;" edge="1" parent="1" source="NHslE8xV1uabQfI8mZE7-62" target="NHslE8xV1uabQfI8mZE7-60">
          <mxGeometry relative="1" as="geometry" />
        </mxCell>
        <mxCell id="NHslE8xV1uabQfI8mZE7-62" value="Luego de ello, avisa a Max de que su intención era guardar aquel poder en este universo, y le avisa de la siguiente amenaza." style="rounded=1;whiteSpace=wrap;html=1;" vertex="1" parent="1">
          <mxGeometry x="920" y="1085" width="130" height="90" as="geometry" />
        </mxCell>
        <mxCell id="NHslE8xV1uabQfI8mZE7-73" style="edgeStyle=orthogonalEdgeStyle;rounded=0;orthogonalLoop=1;jettySize=auto;html=1;exitX=0.5;exitY=0;exitDx=0;exitDy=0;entryX=0.5;entryY=1;entryDx=0;entryDy=0;" edge="1" parent="1" source="NHslE8xV1uabQfI8mZE7-65" target="NHslE8xV1uabQfI8mZE7-72">
          <mxGeometry relative="1" as="geometry" />
        </mxCell>
        <mxCell id="NHslE8xV1uabQfI8mZE7-65" value="Inicia el periodo de paz" style="rounded=1;whiteSpace=wrap;html=1;" vertex="1" parent="1">
          <mxGeometry x="920" y="812.5" width="130" height="90" as="geometry" />
        </mxCell>
        <mxCell id="NHslE8xV1uabQfI8mZE7-72" value="Tras un skiptime, comienza el arco del limbo" style="rounded=1;whiteSpace=wrap;html=1;" vertex="1" parent="1">
          <mxGeometry x="1000" y="530" width="120" height="60" as="geometry" />
        </mxCell>
        <mxCell id="NHslE8xV1uabQfI8mZE7-74" value="Avisa a Daigo del ejército" style="rounded=1;whiteSpace=wrap;html=1;fillColor=#fff2cc;strokeColor=#d6b656;" vertex="1" parent="1">
          <mxGeometry x="320" y="80" width="120" height="60" as="geometry" />
        </mxCell>
      </root>
    </mxGraphModel>
  </diagram>
</mxfile>
